<?xml version="1.0" encoding="UTF-8"?>
<svg version="1.1" xmlns="http://www.w3.org/2000/svg" width="512" height="512">
<path d="M0 0 C1.77556831 -0.00573832 1.77556831 -0.00573832 3.58700669 -0.01159257 C6.86450858 -0.02011736 10.14186711 -0.01969211 13.4193728 -0.01541197 C16.9572977 -0.01294379 20.49519631 -0.02196008 24.03311157 -0.02944946 C30.96125158 -0.04219607 37.88935284 -0.04399019 44.8175026 -0.0416492 C50.44944669 -0.03986578 56.08137901 -0.04161619 61.71332169 -0.04587364 C62.51505372 -0.04646883 63.31678576 -0.04706402 64.14281271 -0.04767724 C65.77156765 -0.048889 67.4003226 -0.05010314 69.02907754 -0.05131962 C84.30232875 -0.06219508 99.57555788 -0.06003268 114.84881033 -0.05393478 C128.81721588 -0.04876602 142.78555168 -0.06001995 156.75394343 -0.07903299 C171.10081605 -0.09841131 185.44765568 -0.10666738 199.79454148 -0.10290974 C207.84755697 -0.10099764 215.9005131 -0.10348616 223.95351791 -0.11762428 C230.80940748 -0.12953899 237.66520115 -0.13094201 244.52109204 -0.11883412 C248.01779728 -0.11294594 251.51432712 -0.11184414 255.01102066 -0.12383652 C258.80471062 -0.13427046 262.59792869 -0.12622946 266.39160156 -0.11352539 C267.49258112 -0.12089968 268.59356067 -0.12827396 269.72790325 -0.13587171 C277.70589382 -0.07963833 284.7966871 0.97119011 290.93606567 6.63960266 C296.48622949 13.12782233 297.87862894 19.601244 297.88919067 27.98725891 C296.6375271 35.22101117 292.63817343 40.54078009 287.82278442 45.88569641 C286.75095982 47.105564 285.67935139 48.32562154 284.60794067 49.54585266 C283.79027222 50.46841858 283.79027222 50.46841858 282.95608521 51.40962219 C280.35869303 54.35333333 277.8105713 57.33869403 275.26028442 60.32319641 C274.51488403 61.1925885 274.51488403 61.1925885 273.75442505 62.07954407 C270.42803863 65.95996682 267.12047793 69.8558763 263.82278442 73.76069641 C258.52622552 80.0323859 253.1867402 86.26660713 247.83889771 92.49458313 C245.33177457 95.41511916 242.82741115 98.33801952 240.32278442 101.26069641 C239.32279783 102.42737457 238.32279783 103.59404123 237.32278442 104.76069641 C236.58028442 105.62694641 236.58028442 105.62694641 235.82278442 106.51069641 C214.32278442 131.59402974 192.82278442 156.67736308 171.32278442 181.76069641 C170.82746216 182.33892151 170.33213989 182.91714661 169.82180786 183.51289368 C168.82645738 184.67343343 167.82972238 185.83278723 166.83157349 186.99092102 C164.2475156 189.99283915 161.6943507 193.01468857 159.18215942 196.07710266 C147.27216028 210.49437223 147.27216028 210.49437223 138.32278442 212.26069641 C129.71387761 213.02202831 123.12480707 211.80385409 116.38528442 206.26069641 C112.37394798 202.5392417 109.0085964 198.36052519 105.60794067 194.08491516 C103.42687295 191.38933915 101.16187002 188.81945265 98.82278442 186.26069641 C94.9038719 181.9607785 91.23107573 177.50150094 87.57278442 172.97944641 C85.38776873 170.33921912 83.13107052 167.79339921 80.82278442 165.26069641 C76.9038719 160.9607785 73.23107573 156.50150094 69.57278442 151.97944641 C67.38776873 149.33921912 65.13107052 146.79339921 62.82278442 144.26069641 C58.9038719 139.9607785 55.23107573 135.50150094 51.57278442 130.97944641 C49.38776873 128.33921912 47.13107052 125.79339921 44.82278442 123.26069641 C40.9038719 118.9607785 37.23107573 114.50150094 33.57278442 109.97944641 C31.38776873 107.33921912 29.13107052 104.79339921 26.82278442 102.26069641 C23.79996022 98.94080155 20.89766281 95.56305529 18.07278442 92.07319641 C12.85759927 85.63357648 7.40946691 79.40614238 1.9692688 73.15718079 C-1.10972384 69.61067799 -4.16421489 66.04319407 -7.21408081 62.47163391 C-9.75526024 59.49675874 -12.30806743 56.53347158 -14.88424683 53.58882141 C-31.16053789 34.92553991 -31.16053789 34.92553991 -31.01315308 21.69038391 C-30.40929227 15.52538634 -28.18991543 10.74243897 -23.77487183 6.38179016 C-16.29426086 0.42314611 -9.28109835 -0.03173057 0 0 Z " fill="#000000" transform="translate(122.67721557617188,149.7393035888672)"/>
</svg>
