<?xml version="1.0" encoding="UTF-8"?>
<svg version="1.1" xmlns="http://www.w3.org/2000/svg" width="512" height="512">
<path d="M0 0 C1.88224398 -0.00202587 3.76448719 -0.00494155 5.64672852 -0.00869751 C9.57348167 -0.01309674 13.50002879 -0.00676774 17.42675781 0.00732422 C22.42955432 0.02441458 27.43186777 0.01456044 32.43464661 -0.00339317 C36.31599487 -0.01429626 40.19723089 -0.01075492 44.07858276 -0.0030098 C45.92194681 -0.00102578 47.76532145 -0.00340292 49.6086731 -0.01044846 C69.61813105 -0.07016613 86.48131031 3.92167184 101.35571289 18.05541992 C110.14319259 26.88804852 114.91150965 36.65522501 118.4375 48.3984375 C118.71122437 49.28885742 118.71122437 49.28885742 118.99047852 50.19726562 C119.56935075 53.04768181 119.53158755 55.74238326 119.5 58.6484375 C119.49097656 59.72609375 119.48195313 60.80375 119.47265625 61.9140625 C119.45525391 63.14382812 119.45525391 63.14382812 119.4375 64.3984375 C120.55090759 64.39177567 121.66431519 64.38511383 122.8114624 64.37825012 C133.34445259 64.31722814 143.87740654 64.27236404 154.41053391 64.24300098 C159.82470869 64.22739728 165.23873987 64.20625643 170.65283203 64.17211914 C175.88537238 64.13933599 181.11777527 64.12154473 186.35041046 64.11380577 C188.3389324 64.10829612 190.32744749 64.09753781 192.31591034 64.08124733 C212.86813678 63.9196891 230.02915271 67.49202894 245.35571289 82.05541992 C255.35662203 92.10771239 263.54080333 106.67198755 263.57172108 121.22717953 C263.57617892 122.2024774 263.58063676 123.17777527 263.58522969 124.18262762 C263.58495315 125.78604752 263.58495315 125.78604752 263.58467102 127.42185974 C263.58834771 128.55949975 263.5920244 129.69713975 263.5958125 130.8692537 C263.60685919 134.69596207 263.6106949 138.52264329 263.61450195 142.34936523 C263.6202339 145.08745049 263.62739994 147.82553167 263.63441467 150.56361389 C263.65416905 158.79196324 263.66424518 167.02031379 263.67314246 175.24868092 C263.67752811 179.12669062 263.6828943 183.00469897 263.68813133 186.8827076 C263.70514458 199.78040375 263.71963683 212.67809906 263.72688007 225.57580471 C263.72878988 228.9221999 263.73071022 232.26859508 263.73266602 235.61499023 C263.73314976 236.44669033 263.7336335 237.27839042 263.7341319 238.13529355 C263.74242497 251.59607415 263.76774922 265.05676568 263.80024669 278.51750743 C263.83336337 292.34792038 263.8513331 306.17828816 263.85452431 320.00874096 C263.85668543 327.76966662 263.86537528 335.53046249 263.89098549 343.29134941 C263.91275578 349.90378076 263.92071206 356.5160508 263.91101871 363.12851392 C263.90649175 366.49837138 263.91047342 369.86762819 263.92778015 373.23748398 C264.05310919 399.0953804 264.05310919 399.0953804 259.4375 409.3984375 C258.93089844 410.61660156 258.42429687 411.83476562 257.90234375 413.08984375 C249.35644904 429.15437728 236.68800334 440.19104614 219.4375 446.3984375 C211.36669267 448.66728329 203.57523614 448.68234871 195.23747253 448.65913391 C193.69558013 448.66215759 192.15368924 448.66604815 190.61180097 448.67072648 C186.39108785 448.68098744 182.17045985 448.67882951 177.94973981 448.67454588 C173.39133441 448.67207519 168.83294932 448.68109711 164.27455139 448.68858337 C155.35021991 448.70132306 146.42591853 448.70312496 137.50157949 448.70078311 C130.24598176 448.6989989 122.99039316 448.70075181 115.73479652 448.70500755 C114.18484499 448.70590034 114.18484499 448.70590034 112.60358131 448.70681116 C110.50430589 448.70802293 108.40503047 448.70923706 106.30575506 448.71045353 C86.6249258 448.72132636 66.94411369 448.71916785 47.26328347 448.71306869 C29.26913115 448.70790034 11.27503299 448.71915326 -6.71910862 448.73816691 C-25.20645949 448.75755156 -43.69378475 448.76580017 -62.18114585 448.76204365 C-72.55596587 448.76013249 -82.93073981 448.76261089 -93.30555153 448.77675819 C-102.13826021 448.78868098 -110.97089444 448.79006683 -119.80360416 448.77796803 C-124.30736935 448.77208554 -128.81099842 448.77096247 -133.31475449 448.78297043 C-137.44340383 448.79385005 -141.57180378 448.79070127 -145.70044156 448.77670874 C-147.18826304 448.77406752 -148.67610419 448.77641018 -150.16390631 448.78444461 C-168.86247333 448.87835406 -184.80107997 443.73992573 -198.48071289 430.74145508 C-208.48122773 420.68955893 -216.65915334 406.13143193 -216.69951439 391.57807541 C-216.70458893 390.60462764 -216.70966347 389.63117986 -216.71489179 388.62823367 C-216.71538955 387.56133343 -216.71588731 386.49443319 -216.71640015 385.39520264 C-216.7207824 384.25967933 -216.72516465 383.12415602 -216.7296797 381.95422292 C-216.7430752 378.13451935 -216.74924838 374.31483885 -216.75537109 370.49511719 C-216.76274578 367.76189902 -216.77153578 365.02868569 -216.78015137 362.29547119 C-216.80466432 354.08045824 -216.81930398 345.86543926 -216.83221143 337.650401 C-216.83592516 335.32802757 -216.83989828 333.00565473 -216.8439641 330.6832819 C-216.86921017 316.24769627 -216.89125361 301.81210964 -216.90369225 287.37650681 C-216.90662175 284.03323106 -216.90958343 280.68995535 -216.91259766 277.34667969 C-216.91334371 276.51576652 -216.91408976 275.68485336 -216.91485842 274.82876101 C-216.92749314 261.38938437 -216.96069074 247.95014059 -217.00239949 234.51082596 C-217.04491596 220.69734962 -217.06839874 206.88394109 -217.07361281 193.07039952 C-217.07701671 185.32108094 -217.08865 177.57196969 -217.12171555 169.82271576 C-217.14985154 163.21803404 -217.16065669 156.61360217 -217.14952008 150.00886521 C-217.14436687 146.64459612 -217.14977968 143.28126883 -217.17198563 139.91700745 C-217.31759427 116.57457636 -214.45126188 99.33656673 -197.9453125 81.68359375 C-181.84000588 66.23834068 -163.77021092 63.93108451 -142.484375 64.10546875 C-140.46128659 64.11107418 -138.43819406 64.11533979 -136.4151001 64.11833191 C-131.12807685 64.12970617 -125.84130661 64.15910839 -120.55438232 64.19244385 C-115.1443626 64.22330586 -109.73430141 64.23687151 -104.32421875 64.25195312 C-93.7368689 64.2839861 -83.14970561 64.33509123 -72.5625 64.3984375 C-72.57233414 63.58190201 -72.58216827 62.76536652 -72.59230042 61.92408752 C-72.60377357 60.31146278 -72.60377357 60.31146278 -72.61547852 58.66625977 C-72.62531265 57.60222427 -72.63514679 56.53818878 -72.64527893 55.44190979 C-72.22184013 39.87364572 -62.40501615 25.79658823 -51.5625 15.3984375 C-35.75427407 2.44377312 -19.78488564 -0.07562042 0 0 Z M-32.9375 43.6484375 C-38.00257219 50.15245065 -39.5625 56.21948922 -39.5625 64.3984375 C2.0175 64.3984375 43.5975 64.3984375 86.4375 64.3984375 C86.4375 54.85077638 84.03411482 48.11382887 77.41015625 41.15234375 C66.99091369 31.88850234 54.01066319 32.09178878 40.75 32.1328125 C39.35717705 32.13146073 37.96435456 32.12951598 36.5715332 32.12701416 C33.67036389 32.12408691 30.76931879 32.12828238 27.86816406 32.13769531 C24.18024299 32.14908846 20.49261319 32.14251599 16.80470276 32.13055038 C13.9339383 32.12326639 11.06324103 32.12564944 8.19247437 32.13080597 C6.18145556 32.13275771 4.17043396 32.12676578 2.15942383 32.12054443 C-11.32242243 32.18881302 -23.24057252 33.36823619 -32.9375 43.6484375 Z M-176.9375 107.6484375 C-183.153438 115.60765556 -184.67319943 125.0258049 -184.70776367 134.89355469 C-184.71414352 136.13884949 -184.72052338 137.38414429 -184.72709656 138.66717529 C-184.72862593 140.00988729 -184.72973952 141.35259983 -184.73046875 142.6953125 C-184.73368861 144.09385206 -184.73705321 145.49239129 -184.74055481 146.89093018 C-184.74652245 149.81596659 -184.74839721 152.74097356 -184.74780273 155.66601562 C-184.74770138 159.38541824 -184.76133627 163.10462881 -184.77857494 166.82398605 C-184.78978079 169.71190226 -184.79171931 172.59977334 -184.79119301 175.48770905 C-184.7923609 176.85742096 -184.79671442 178.22713451 -184.80452538 179.59682465 C-184.8744739 193.13166114 -184.22212949 204.69005678 -174.96484375 215.21484375 C-166.9577987 222.76758837 -156.55466899 224.53307546 -145.89282227 224.51196289 C-144.61202286 224.51188736 -143.33122345 224.51181183 -142.01161194 224.51173401 C-140.63404297 224.50662895 -139.25647441 224.50141298 -137.87890625 224.49609375 C-136.4540156 224.4942261 -135.02912431 224.49280384 -133.60423279 224.49180603 C-129.8740966 224.48800816 -126.14400004 224.47820152 -122.41387939 224.46710205 C-117.92754179 224.45501917 -113.44119087 224.45047268 -108.95484161 224.44464874 C-102.15736695 224.43498803 -95.35997903 224.41581248 -88.5625 224.3984375 C-88.5625 213.8384375 -88.5625 203.2784375 -88.5625 192.3984375 C-78.0025 192.3984375 -67.4425 192.3984375 -56.5625 192.3984375 C-56.5625 202.9584375 -56.5625 213.5184375 -56.5625 224.3984375 C-3.7625 224.3984375 49.0375 224.3984375 103.4375 224.3984375 C103.4375 213.8384375 103.4375 203.2784375 103.4375 192.3984375 C113.9975 192.3984375 124.5575 192.3984375 135.4375 192.3984375 C135.4375 202.9584375 135.4375 213.5184375 135.4375 224.3984375 C146.5439353 224.45672525 146.5439353 224.45672525 157.65039062 224.49609375 C162.18828072 224.50799358 166.72608919 224.52198529 171.26391602 224.54931641 C174.92735367 224.57124 178.59070363 224.58304671 182.25420189 224.58819199 C183.64345871 224.59185307 185.0327114 224.59900087 186.42193031 224.60989761 C200.04072344 224.71235466 211.65915216 224.11960796 222.25390625 214.80078125 C229.7595755 206.84364317 231.54563734 196.50252148 231.58276367 185.90332031 C231.58914352 184.65802551 231.59552338 183.41273071 231.60209656 182.12969971 C231.60362593 180.78698771 231.60473952 179.44427517 231.60546875 178.1015625 C231.60868861 176.70302294 231.61205321 175.30448371 231.61555481 173.90594482 C231.62152245 170.98090841 231.62339721 168.05590144 231.62280273 165.13085938 C231.62270138 161.41145676 231.63633627 157.69224619 231.65357494 153.97288895 C231.66478079 151.08497274 231.66671931 148.19710166 231.66619301 145.30916595 C231.6673609 143.93945404 231.67171442 142.56974049 231.67952538 141.20005035 C231.7494739 127.66521386 231.09712949 116.10681822 221.83984375 105.58203125 C211.64184559 95.96264292 198.43366461 96.24870272 185.30645752 96.26472473 C183.85632542 96.26285527 182.40619383 96.26055403 180.95606303 96.25785941 C176.97975547 96.25175163 173.00346896 96.2518738 169.02715778 96.25305378 C164.73527516 96.25325805 160.44339926 96.24773655 156.15151978 96.24299622 C147.74595757 96.23469463 139.34040238 96.23194159 130.93483642 96.23138384 C124.10109548 96.23090843 117.26735685 96.22885244 110.43361664 96.22568321 C91.0518848 96.21687786 71.67015849 96.21226363 52.28842464 96.21301369 C50.72156265 96.21307362 50.72156265 96.21307362 49.12304688 96.21313477 C47.55426816 96.21319609 47.55426816 96.21319609 45.95379695 96.21325865 C29.00643128 96.21366505 12.05908783 96.20409667 -4.88827142 96.1899964 C-22.29638876 96.17562725 -39.70449526 96.16872652 -57.11261868 96.16959018 C-66.88324246 96.16992197 -76.65384294 96.16718273 -86.42446136 96.15641212 C-94.74376583 96.14730003 -103.06303644 96.1451377 -111.38234374 96.15192155 C-115.62468705 96.15518321 -119.86696542 96.15525623 -124.10930252 96.1465683 C-127.99799386 96.1386867 -131.88656894 96.14015162 -135.7752575 96.14885243 C-137.17698488 96.15038377 -138.57872102 96.14858513 -139.98043808 96.14299235 C-154.0414892 96.09063538 -166.76679805 96.86596401 -176.9375 107.6484375 Z M-184.5625 248.3984375 C-184.60931829 265.94064807 -184.64453687 283.482839 -184.66612434 301.02509785 C-184.67641629 309.17113146 -184.69043662 317.31712615 -184.71337891 325.46313477 C-184.73337673 332.56708418 -184.74623155 339.67100538 -184.75067699 346.77498215 C-184.75327359 350.53294411 -184.75933286 354.29082539 -184.77396011 358.04876137 C-184.7876453 361.59375619 -184.79170081 365.13863796 -184.78871536 368.68365669 C-184.78951854 370.58881201 -184.80022248 372.49395532 -184.81134033 374.39907837 C-184.78147158 386.99532112 -183.52321834 397.48466237 -174.96484375 407.21484375 C-164.76684559 416.83423208 -151.55866461 416.54817228 -138.43145752 416.53215027 C-136.98132542 416.53401973 -135.53119383 416.53632097 -134.08106303 416.53901559 C-130.10475547 416.54512337 -126.12846896 416.5450012 -122.15215778 416.54382122 C-117.86027516 416.54361695 -113.56839926 416.54913845 -109.27651978 416.55387878 C-100.87095757 416.56218037 -92.46540238 416.56493341 -84.05983642 416.56549116 C-77.22609548 416.56596657 -70.39235685 416.56802256 -63.55861664 416.57119179 C-44.1768848 416.57999714 -24.79515849 416.58461137 -5.41342464 416.58386131 C-3.84656265 416.58380138 -3.84656265 416.58380138 -2.24804688 416.58374023 C-0.67926816 416.58367891 -0.67926816 416.58367891 0.92120305 416.58361635 C17.86856872 416.58320995 34.81591217 416.59277833 51.76327142 416.6068786 C69.17138876 416.62124775 86.57949526 416.62814848 103.98761868 416.62728482 C113.75824246 416.62695303 123.52884294 416.62969227 133.29946136 416.64046288 C141.61876583 416.64957497 149.93803644 416.6517373 158.25734374 416.64495345 C162.49968705 416.64169179 166.74196542 416.64161877 170.98430252 416.6503067 C174.87299386 416.6581883 178.76156894 416.65672338 182.6502575 416.64802257 C184.05198488 416.64649123 185.45372102 416.64828987 186.85543808 416.65388265 C200.30883365 416.70397699 211.7946607 416.00041873 222.25390625 406.80078125 C231.6628747 396.82585981 231.5881398 383.98747962 231.55102539 371.11938477 C231.55074298 369.77846784 231.55090231 368.43755075 231.5514679 367.09663391 C231.55175375 363.47318336 231.54589134 359.84976619 231.53889394 356.22632337 C231.53262505 352.4333496 231.53205381 348.640375 231.53086853 344.84739685 C231.52776562 337.67234765 231.51956628 330.49731376 231.50951904 323.32227129 C231.49832557 315.1505616 231.49283931 306.97885116 231.48782361 298.8071357 C231.47738277 282.00422735 231.45980352 265.20133438 231.4375 248.3984375 C230.61962478 248.74444818 229.80174955 249.09045887 228.95909023 249.44695473 C227.88296506 249.89940748 226.80683989 250.35186024 225.69810486 250.81802368 C224.63272964 251.26715937 223.56735441 251.71629505 222.46969509 252.17904091 C212.93309953 256.01418072 203.27889889 255.74037425 193.15234375 255.8125 C191.48367889 255.83123693 189.81502325 255.85081217 188.14637756 255.8711853 C183.78176339 255.92224607 179.41711858 255.96201023 175.05236816 255.99932861 C170.58757106 256.03953275 166.1228985 256.09054976 161.65820312 256.140625 C152.91804807 256.23707534 144.17784045 256.32057678 135.4375 256.3984375 C135.4375 266.9584375 135.4375 277.5184375 135.4375 288.3984375 C124.8775 288.3984375 114.3175 288.3984375 103.4375 288.3984375 C103.4375 277.8384375 103.4375 267.2784375 103.4375 256.3984375 C50.6375 256.3984375 -2.1625 256.3984375 -56.5625 256.3984375 C-56.5625 266.9584375 -56.5625 277.5184375 -56.5625 288.3984375 C-67.1225 288.3984375 -77.6825 288.3984375 -88.5625 288.3984375 C-88.5625 277.8384375 -88.5625 267.2784375 -88.5625 256.3984375 C-93.83734375 256.36105469 -99.1121875 256.32367188 -104.546875 256.28515625 C-107.91018747 256.25484169 -111.27344924 256.22367114 -114.63671875 256.18945312 C-119.96237472 256.13535013 -125.28793041 256.0842328 -130.61376953 256.05200195 C-134.91280539 256.02578535 -139.21149997 255.98525685 -143.51032257 255.93525124 C-145.14151987 255.91870556 -146.77277603 255.90711539 -148.4040451 255.90082359 C-161.63537246 255.84468048 -172.48879054 253.93424629 -184.5625 248.3984375 Z " fill="#000000" transform="translate(232.5625,31.6015625)"/>
</svg>
